<svg height="512pt" viewBox="0 0 512 512" width="512pt" xmlns="http://www.w3.org/2000/svg" xmlns:xlink="http://www.w3.org/1999/xlink"><linearGradient id="a" gradientUnits="userSpaceOnUse" x1="0" x2="512" y1="256" y2="256"><stop offset="0" stop-color="#00f38d"/><stop offset="1" stop-color="#009eff"/></linearGradient><path d="m512 256c0 141.386719-114.613281 256-256 256s-256-114.613281-256-256 114.613281-256 256-256 256 114.613281 256 256zm0 0" fill="url(#a)"/><g fill="#fff"><path d="m155.617188 141.140625c0 7.507813-6.085938 13.59375-13.59375 13.59375-7.503907 0-13.589844-6.085937-13.589844-13.59375s6.085937-13.589844 13.589844-13.589844c7.507812 0 13.59375 6.082031 13.59375 13.589844zm0 0"/><path d="m203.1875 141.140625c0 7.507813-6.082031 13.59375-13.589844 13.59375-7.507812 0-13.59375-6.085937-13.59375-13.59375s6.085938-13.589844 13.59375-13.589844c7.507813 0 13.589844 6.082031 13.589844 13.589844zm0 0"/><path d="m336.21875 273.035156c-5.394531-5.371094-12.058594-9.472656-19.28125-11.867187l-.6875-.226563-66.964844-15.226562 15.03125 67.136718.234375.707032c2.402344 7.265625 6.53125 13.964844 11.941407 19.375l94.902343 92.296875 59.746094-59.882813zm34.855469 110.035156-73.429688-71.410156c-.167969-.171875-.320312-.367187-.484375-.546875l17.332032-17.316406c.195312.175781.402343.339844.589843.523437l73.359375 71.347657zm0 0"/><path d="m121.636719 385.800781c-7.496094 0-13.59375-6.097656-13.59375-13.59375v-175.289062h293.59375v102.417969l27.183593 26.4375v-198.222657c0-22.484375-18.292968-40.777343-40.777343-40.777343h-266.40625c-22.484375 0-40.777344 18.292968-40.777344 40.777343v244.65625c0 22.484375 18.292969 40.777344 40.777344 40.777344h198.53125l-27.949219-27.183594zm0-271.84375h266.40625c7.496093 0 13.59375 6.097657 13.59375 13.589844v39.371094h-293.59375v-39.371094c0-7.492187 6.097656-13.589844 13.59375-13.589844zm0 0"/></g></svg>